<?xml version="1.0" encoding="UTF-8" standalone="no"?>
<!-- Created with Inkscape (http://www.inkscape.org/) -->

<svg
   width="44.077385mm"
   height="51.004501mm"
   viewBox="0 0 44.077385 51.004501"
   version="1.1"
   id="svg1"
   xml:space="preserve"
   inkscape:version="1.3.2 (091e20e, 2023-11-25)"
   sodipodi:docname="logo.svg"
   inkscape:export-filename="../man/figures/logo.png"
   inkscape:export-xdpi="96"
   inkscape:export-ydpi="96"
   xmlns:inkscape="http://www.inkscape.org/namespaces/inkscape"
   xmlns:sodipodi="http://sodipodi.sourceforge.net/DTD/sodipodi-0.dtd"
   xmlns="http://www.w3.org/2000/svg"
   xmlns:svg="http://www.w3.org/2000/svg"
   xmlns:rdf="http://www.w3.org/1999/02/22-rdf-syntax-ns#"
   xmlns:cc="http://creativecommons.org/ns#"
   xmlns:dc="http://purl.org/dc/elements/1.1/"><title
     id="title1">abares</title><sodipodi:namedview
     id="namedview1"
     pagecolor="#ffffff"
     bordercolor="#000000"
     borderopacity="0.25"
     inkscape:showpageshadow="2"
     inkscape:pageopacity="0.0"
     inkscape:pagecheckerboard="0"
     inkscape:deskcolor="#d1d1d1"
     inkscape:document-units="mm"
     inkscape:zoom="2.227426"
     inkscape:cx="89.340791"
     inkscape:cy="82.831035"
     inkscape:window-width="1392"
     inkscape:window-height="1212"
     inkscape:window-x="2065"
     inkscape:window-y="553"
     inkscape:window-maximized="0"
     inkscape:current-layer="layer1" /><defs
     id="defs1">
	

		
		
		
		
		
		
		
		
		
		
		
		
		
		
		
		
		
		
		
		
	
	

		
		
	
			
			
			
			
			
		</defs><g
     inkscape:label="Layer 1"
     inkscape:groupmode="layer"
     id="layer1"
     transform="translate(-74.036958,-127.04572)"><g
       id="g5"
       transform="matrix(0.17787115,0,0,0.17787114,53.981957,66.55573)">
		</g><g
       id="g2"
       inkscape:export-filename="../man/figures/logo.png"
       inkscape:export-xdpi="96"
       inkscape:export-ydpi="96"><g
         id="g2490"
         transform="matrix(0.28222223,0,0,0.28222223,522.38555,134.67674)"
         style="fill:#214f54;fill-opacity:1"><path
           style="color:#000000;font-style:normal;font-variant:normal;font-weight:normal;font-stretch:normal;font-size:medium;line-height:normal;font-family:sans-serif;font-variant-ligatures:normal;font-variant-position:normal;font-variant-caps:normal;font-variant-numeric:normal;font-variant-alternates:normal;font-variant-east-asian:normal;font-feature-settings:normal;font-variation-settings:normal;text-indent:0;text-align:start;text-decoration:none;text-decoration-line:none;text-decoration-style:solid;text-decoration-color:#000000;letter-spacing:normal;word-spacing:normal;text-transform:none;writing-mode:lr-tb;direction:ltr;text-orientation:mixed;dominant-baseline:auto;baseline-shift:baseline;text-anchor:start;white-space:normal;shape-padding:0;shape-margin:0;inline-size:0;clip-rule:nonzero;display:inline;overflow:visible;visibility:visible;isolation:auto;mix-blend-mode:normal;color-interpolation:sRGB;color-interpolation-filters:linearRGB;solid-color:#000000;solid-opacity:1;vector-effect:none;fill:#214f54;fill-opacity:1;fill-rule:nonzero;stroke:none;stroke-width:0.627805;stroke-linecap:butt;stroke-linejoin:miter;stroke-miterlimit:4;stroke-dasharray:none;stroke-dashoffset:0;stroke-opacity:1;color-rendering:auto;image-rendering:auto;shape-rendering:auto;text-rendering:auto;enable-background:accumulate;stop-color:#000000;stop-opacity:1"
           d="m -1438.9734,14.732322 -58.808,-34.027107 -12.765,-7.382439 -12.7651,7.382439 -58.808,34.027107 -6.2025,3.585153 v 90.010605 l 6.2025,3.58515 59.5278,34.45138 12.0453,6.95816 12.0453,-6.95816 59.5277,-34.45138 6.2025,-3.58515 V 18.317475 Z m 0,90.222748 -71.573,41.40954 -71.5731,-41.40954 V 22.114765 l 71.5731,-41.40955 v 0 l 71.573,41.40955 z"
           id="path2492" /><path
           style="color:#000000;font-style:normal;font-variant:normal;font-weight:normal;font-stretch:normal;font-size:medium;line-height:normal;font-family:sans-serif;font-variant-ligatures:normal;font-variant-position:normal;font-variant-caps:normal;font-variant-numeric:normal;font-variant-alternates:normal;font-variant-east-asian:normal;font-feature-settings:normal;font-variation-settings:normal;text-indent:0;text-align:start;text-decoration:none;text-decoration-line:none;text-decoration-style:solid;text-decoration-color:#000000;letter-spacing:normal;word-spacing:normal;text-transform:none;writing-mode:lr-tb;direction:ltr;text-orientation:mixed;dominant-baseline:auto;baseline-shift:baseline;text-anchor:start;white-space:normal;shape-padding:0;shape-margin:0;inline-size:0;clip-rule:nonzero;display:inline;overflow:visible;visibility:visible;isolation:auto;mix-blend-mode:normal;color-interpolation:sRGB;color-interpolation-filters:linearRGB;solid-color:#000000;solid-opacity:1;vector-effect:none;fill:#214f54;fill-opacity:1;fill-rule:nonzero;stroke:none;stroke-width:0.627805;stroke-linecap:butt;stroke-linejoin:miter;stroke-miterlimit:4;stroke-dasharray:none;stroke-dashoffset:0;stroke-opacity:1;color-rendering:auto;image-rendering:auto;shape-rendering:auto;text-rendering:auto;enable-background:accumulate;stop-color:#000000;stop-opacity:1"
           d="m -1510.5469,-27.039062 -12.9219,7.472656 -58.8085,34.027344 -6.3594,3.675781 v 90.373051 l 6.3594,3.67578 59.5293,34.45117 12.2011,7.04883 12.2031,-7.04883 59.5274,-34.45117 6.3594,-3.67578 V 18.136719 l -6.3594,-3.675781 -58.8086,-34.027344 z m 0,0.724609 12.6074,7.291015 58.8086,34.027344 6.0469,3.494141 v 89.648433 l -6.0469,3.49414 -59.5273,34.45313 -11.8887,6.86719 -11.8886,-6.86719 -59.5274,-34.45313 -6.0449,-3.49414 V 18.498047 l 6.0449,-3.494141 58.8086,-34.027344 z m 0,6.65625 -71.8867,41.591797 v 83.203126 l 71.8867,41.58984 71.8867,-41.58984 v -0.18164 -83.021486 z m 0,0.726562 71.2598,41.226563 v 82.478518 l -71.2598,41.22851 -71.2578,-41.22851 V 22.294922 Z"
           id="path2494" /></g><path
         style="fill:#ffffff;fill-opacity:1;stroke-width:0.862285"
         d="m 86.012031,169.92948 -10.042879,-5.80416 0.04431,-11.54022 0.04431,-11.54023 9.988522,-5.77923 c 8.499689,-4.91782 10.041999,-5.75345 10.347419,-5.60621 0.19739,0.0952 4.704787,2.69082 10.016467,5.76813 l 9.65758,5.59511 0.0443,11.55834 0.0443,11.55834 -10.01663,5.79714 c -5.50915,3.18844 -10.031977,5.79715 -10.050747,5.79715 -0.0186,0 -4.553373,-2.61187 -10.07697,-5.80416 z"
         id="path2496" /><path
         class="st1"
         d="m 81.305624,148.97632 h 5.012825 c 0.67103,0 1.215904,0.29068 1.215904,0.65556 v 1.45344 c 0,0.36179 -0.544874,0.65555 -1.215904,0.65555 h -5.012825 c -0.676813,0 -1.215904,-0.29376 -1.215904,-0.65555 v -1.45344 c 0,-0.36493 0.539091,-0.65556 1.215904,-0.65556 z"
         id="path2"
         style="fill:#6c8d48;fill-opacity:1;stroke-width:0.0571314" /><path
         class="st2"
         d="m 81.087629,152.27482 h 5.443033 c 0.556363,0 1.003691,0.4576 1.003691,1.0267 v 2.27038 c 0,0.56902 -0.447404,1.0267 -1.003691,1.0267 h -5.443033 c -0.550581,0 -0.997985,-0.4576 -0.997985,-1.0267 v -2.27038 c 7.6e-5,-0.5691 0.447404,-1.0267 0.997985,-1.0267 z"
         id="path3"
         style="fill:#97b7a8;fill-opacity:1;stroke-width:0.0786906" /><path
         class="st2"
         d="m 81.087629,157.03855 h 5.443033 c 0.556363,0 1.003691,0.45761 1.003691,1.02077 v 2.27631 c 0,0.56902 -0.447404,1.02077 -1.003691,1.02077 h -5.443033 c -0.550581,0 -0.997985,-0.45175 -0.997985,-1.02077 v -2.27631 c 7.6e-5,-0.56316 0.447404,-1.02077 0.997985,-1.02077 z"
         id="path4"
         style="fill:#97b7a8;fill-opacity:1;stroke-width:0.0786906" /><path
         class="st2"
         d="m 81.087629,161.80228 h 5.443033 c 0.556363,0 1.003691,0.45175 1.003691,1.02085 v 2.27623 c 0,0.56324 -0.447404,1.02085 -1.003691,1.02085 h -5.443033 c -0.550581,0 -0.997985,-0.45761 -0.997985,-1.02085 v -2.27623 c 7.6e-5,-0.5691 0.447404,-1.02085 0.997985,-1.02085 z"
         id="path5"
         style="fill:#97b7a8;fill-opacity:1;stroke-width:0.0786906" /><path
         class="st1"
         d="m 89.151779,148.97632 h 5.012827 c 0.676812,0 1.215903,0.29068 1.215903,0.65556 v 1.45344 c 0,0.36179 -0.539168,0.65555 -1.215903,0.65555 h -5.012827 c -0.67103,0 -1.215904,-0.29376 -1.215904,-0.65555 v -1.45344 c 0,-0.36493 0.544874,-0.65556 1.215904,-0.65556 z"
         id="path6"
         style="fill:#6c8d48;fill-opacity:1;stroke-width:0.0571314" /><path
         class="st3"
         d="m 88.939567,152.27482 h 5.443034 c 0.550579,0 0.997983,0.4576 0.997983,1.0267 v 2.27038 c 0,0.56902 -0.447404,1.0267 -0.997983,1.0267 h -5.443034 c -0.556364,0 -1.003692,-0.4576 -1.003692,-1.0267 v -2.27038 c 0,-0.5691 0.447404,-1.0267 1.003692,-1.0267 z"
         id="path7"
         style="fill:#7b9fb3;fill-opacity:1;stroke-width:0.0786906" /><path
         class="st3"
         d="m 88.939567,157.03855 h 5.443034 c 0.550579,0 0.997983,0.45761 0.997983,1.02077 v 2.27631 c 0,0.56902 -0.447404,1.02077 -0.997983,1.02077 h -5.443034 c -0.556364,0 -1.003692,-0.45175 -1.003692,-1.02077 v -2.27631 c 0,-0.56316 0.447404,-1.02077 1.003692,-1.02077 z"
         id="path8"
         style="fill:#7b9fb3;fill-opacity:1;stroke-width:0.0786906" /><path
         class="st3"
         d="m 88.939567,161.80228 h 5.443034 c 0.550579,0 0.997983,0.45175 0.997983,1.02085 v 2.27623 c 0,0.56324 -0.447404,1.02085 -0.997983,1.02085 h -5.443034 c -0.556364,0 -1.003692,-0.45761 -1.003692,-1.02085 v -2.27623 c 0,-0.5691 0.447404,-1.02085 1.003692,-1.02085 z"
         id="path9"
         style="fill:#7b9fb3;fill-opacity:1;stroke-width:0.0786906" /><path
         class="st3"
         d="m 96.785799,152.27482 h 5.443031 c 0.55636,0 1.00369,0.4576 1.00369,1.0267 v 2.27038 c 0,0.56902 -0.4474,1.0267 -1.00369,1.0267 h -5.443031 c -0.550583,0 -0.997986,-0.4576 -0.997986,-1.0267 v -2.27038 c 0,-0.5691 0.447403,-1.0267 0.997986,-1.0267 z"
         id="path11"
         style="fill:#7b9fb3;fill-opacity:1;stroke-width:0.0786906" /><path
         class="st3"
         d="m 96.785799,157.03855 h 5.443031 c 0.55636,0 1.00369,0.45761 1.00369,1.02077 v 2.27631 c 0,0.56902 -0.4474,1.02077 -1.00369,1.02077 h -5.443031 c -0.550583,0 -0.997986,-0.45175 -0.997986,-1.02077 v -2.27631 c 0,-0.56316 0.447403,-1.02077 0.997986,-1.02077 z"
         id="path12"
         style="fill:#7b9fb3;fill-opacity:1;stroke-width:0.0786906" /><path
         class="st3"
         d="m 96.785799,161.80228 h 5.443031 c 0.55636,0 1.00369,0.45175 1.00369,1.02085 v 2.27623 c 0,0.56324 -0.4474,1.02085 -1.00369,1.02085 h -5.443031 c -0.550583,0 -0.997986,-0.45761 -0.997986,-1.02085 v -2.27623 c 0,-0.5691 0.447403,-1.02085 0.997986,-1.02085 z"
         id="path13"
         style="fill:#7b9fb3;fill-opacity:1;stroke-width:0.0786906" /><g
         id="g1"><path
           class="st1"
           d="m 97.003716,146.49618 h 5.012824 c 0.67103,0 1.21591,0.55144 1.21591,1.24367 v 2.75736 c 0,0.68636 -0.54488,1.24366 -1.21591,1.24366 h -5.012824 c -0.67681,0 -1.215903,-0.5573 -1.215903,-1.24366 v -2.75736 c 0,-0.69232 0.539168,-1.24367 1.215903,-1.24367 z"
           id="path10"
           style="fill:#6c8d48;fill-opacity:1;stroke-width:0.0786906" /><path
           class="st1"
           d="m 104.84995,146.49618 h 5.01282 c 0.67682,0 1.21591,0.55144 1.21591,1.24367 v 2.75736 c 0,0.68636 -0.53917,1.24366 -1.21591,1.24366 h -5.01282 c -0.67103,0 -1.21591,-0.5573 -1.21591,-1.24366 v -2.75736 c -7e-5,-0.69232 0.5448,-1.24367 1.21591,-1.24367 z"
           id="path14"
           style="fill:#6c8d48;fill-opacity:1;stroke-width:0.0786906" /></g><path
         class="st3"
         d="m 104.63774,152.27482 h 5.44303 c 0.55058,0 0.99798,0.4576 0.99798,1.0267 v 2.27038 c 0,0.56902 -0.4474,1.0267 -0.99798,1.0267 h -5.44303 c -0.55637,0 -1.0037,-0.4576 -1.0037,-1.0267 v -2.27038 c -7e-5,-0.5691 0.44733,-1.0267 1.0037,-1.0267 z"
         id="path15"
         style="fill:#7b9fb3;fill-opacity:1;stroke-width:0.0786906" /><path
         class="st3"
         d="m 104.63774,157.03855 h 5.44303 c 0.55058,0 0.99798,0.45761 0.99798,1.02077 v 2.27631 c 0,0.56902 -0.4474,1.02077 -0.99798,1.02077 h -5.44303 c -0.55637,0 -1.0037,-0.45175 -1.0037,-1.02077 v -2.27631 c -7e-5,-0.56316 0.44733,-1.02077 1.0037,-1.02077 z"
         id="path16"
         style="fill:#7b9fb3;fill-opacity:1;stroke-width:0.0786906" /><path
         class="st3"
         d="m 104.63774,161.80228 h 5.44303 c 0.55058,0 0.99798,0.45175 0.99798,1.02085 v 2.27623 c 0,0.56324 -0.4474,1.02085 -0.99798,1.02085 h -5.44303 c -0.55637,0 -1.0037,-0.45761 -1.0037,-1.02085 v -2.27623 c -7e-5,-0.5691 0.44733,-1.02085 1.0037,-1.02085 z"
         id="path17"
         style="fill:#7b9fb3;fill-opacity:1;stroke-width:0.0786906" /><polygon
         style="fill:#7b9fb3;fill-opacity:1"
         points="197.46,60.79 210.47,138.87 135.96,138.87 148.97,60.79 "
         id="polygon1"
         transform="matrix(0.05115233,0,0,0.05471009,80.866594,133.48839)" /><path
         style="fill:#6c8d48;fill-opacity:1;stroke-width:0.0529013"
         d="m 94.226559,144.64104 v 0.906 H 81.890664 v -0.906 c 0,-0.38023 0.28901,-0.68934 0.644519,-0.68934 h 11.046858 c 0.355509,0 0.644518,0.30911 0.644518,0.68934 z"
         id="path1-7" /><path
         style="fill:#e2843b;fill-opacity:1;stroke-width:0.0529013"
         d="m 90.889894,142.16705 v 0.70303 h -7.330641 v -2.54566 c 0,-0.95196 0.723805,-1.72611 1.613344,-1.72611 h 2.01131 l -0.458325,2.93958 c -0.02455,0.15647 0.01688,0.31677 0.113047,0.43822 0.09617,0.12146 0.237347,0.19094 0.385688,0.19094 z"
         id="path2-9" /><path
         d="m 95.56624,134.84028 c 0.279293,0 0.505386,0.24236 0.505386,0.54108 0,0.29817 -0.226093,0.54054 -0.505386,0.54054 h -1.437893 l -1.909004,2.35034 0.508965,3.26565 c 0.02455,0.15647 -0.01688,0.31677 -0.113046,0.43822 -0.09617,0.12146 -0.237347,0.19094 -0.385689,0.19094 h -0.328909 v 0.70303 h 1.681377 c 0.912558,0 1.655802,0.79439 1.655802,1.77096 v 1.44654 c 0,0.29871 -0.226605,0.54053 -0.505898,0.54053 H 81.385279 c -0.279292,0 -0.505897,-0.24182 -0.505897,-0.54053 v -1.44654 c 0,-0.97657 0.742732,-1.77096 1.655801,-1.77096 h 0.01279 v -2.54566 c 0,-1.5483 1.177527,-2.80718 2.624626,-2.80718 H 87.3522 l 0.207678,-1.33274 c 0.04041,-0.26096 0.25167,-0.4519 0.498736,-0.4519 h 3.336666 c 0.247066,0 0.458325,0.19094 0.498736,0.4519 l 0.109977,0.70412 1.512063,-1.86233 c 0.09617,-0.11817 0.235301,-0.18601 0.381596,-0.18601 z m -1.339681,10.70676 v -0.906 c 0,-0.38023 -0.289009,-0.68934 -0.644518,-0.68934 H 82.535183 c -0.355509,0 -0.644519,0.30911 -0.644519,0.68934 v 0.906 z m -2.593933,-4.46106 -0.665492,-4.27176 h -2.480377 l -0.665492,4.27176 z m -0.742732,1.7841 v -0.70303 h -3.665577 c -0.148341,0 -0.289522,-0.0695 -0.385688,-0.19094 -0.09617,-0.12145 -0.1376,-0.28175 -0.113047,-0.43822 l 0.458325,-2.93958 h -2.01131 c -0.889539,0 -1.613344,0.77415 -1.613344,1.72611 v 2.54566 z"
         id="path3-3"
         style="fill:#214f54;fill-opacity:1;stroke-width:0;stroke-dasharray:none" /><path
         d="m 94.731945,147.33114 c 0.279293,0 0.505898,0.24236 0.505898,0.54053 0,0.29872 -0.226605,0.54109 -0.505898,0.54109 H 81.385279 c -0.279292,0 -0.505897,-0.24237 -0.505897,-0.54109 0,-0.29817 0.226605,-0.54053 0.505897,-0.54053 z"
         id="path4-8"
         style="fill:#214f54;fill-opacity:1;stroke-width:0.0372207;stroke-dasharray:none" /><text
         xml:space="preserve"
         style="font-style:normal;font-variant:normal;font-weight:500;font-stretch:normal;font-size:4.93889px;line-height:3.55685px;font-family:'IBM Plex Serif';-inkscape-font-specification:'IBM Plex Serif Medium';white-space:pre;inline-size:18.7379;display:inline;fill:#214f54;fill-opacity:1;stroke:none;stroke-width:0.771518;stroke-linejoin:round"
         x="99.689934"
         y="137.20293"
         id="text1"
         transform="matrix(0.971991,0,0,1.0288161,-1.2575695,0)"><tspan
           x="99.689934"
           y="137.20293"
           id="tspan3"><tspan
             style="font-weight:600;-inkscape-font-specification:'IBM Plex Serif Semi-Bold'"
             id="tspan2">read.
</tspan></tspan><tspan
           x="99.689934"
           y="140.75978"
           id="tspan5"><tspan
   style="font-weight:600;-inkscape-font-specification:'IBM Plex Serif Semi-Bold'"
   id="tspan4">abares</tspan>
</tspan><tspan
           x="99.689934"
           y="144.31663"
           id="tspan12">
</tspan></text></g></g><style
     type="text/css"
     id="style1">
	.st0{fill:#FFFFFF;stroke:#FFFFFF;stroke-width:10;stroke-miterlimit:10;}
	.st1{fill:#1F9900;}
	.st2{fill:#69AD36;}
	.st3{fill:#C0DBA4;}
</style><metadata
     id="metadata1"><rdf:RDF><cc:Work
         rdf:about=""><dc:title>abares</dc:title><dc:date>2024-09-22</dc:date><dc:creator><cc:Agent><dc:title>Adam H. Sparks</dc:title></cc:Agent></dc:creator><dc:contributor><cc:Agent><dc:title>SVG Repo, https://www.svgrepo.com/svg/172230/combine-harvester
</dc:title></cc:Agent></dc:contributor><dc:rights><cc:Agent><dc:title>CC BY-SA 4.0</dc:title></cc:Agent></dc:rights><dc:subject><rdf:Bag><rdf:li>R</rdf:li><rdf:li>Hex Logo</rdf:li></rdf:Bag></dc:subject><cc:license
           rdf:resource="http://creativecommons.org/licenses/by-sa/4.0/" /></cc:Work><cc:License
         rdf:about="http://creativecommons.org/licenses/by-sa/4.0/"><cc:permits
           rdf:resource="http://creativecommons.org/ns#Reproduction" /><cc:permits
           rdf:resource="http://creativecommons.org/ns#Distribution" /><cc:requires
           rdf:resource="http://creativecommons.org/ns#Notice" /><cc:requires
           rdf:resource="http://creativecommons.org/ns#Attribution" /><cc:permits
           rdf:resource="http://creativecommons.org/ns#DerivativeWorks" /><cc:requires
           rdf:resource="http://creativecommons.org/ns#ShareAlike" /></cc:License></rdf:RDF></metadata></svg>
